<?xml version="1.0" encoding="UTF-8" standalone="no"?>
<!-- Created with Inkscape (http://www.inkscape.org/) -->

<svg
   version="1.1"
   id="svg1"
   width="2134.1011"
   height="2079.9309"
   viewBox="0 0 2134.1011 2079.9309"
   sodipodi:docname="GitHub.png"
   xmlns:inkscape="http://www.inkscape.org/namespaces/inkscape"
   xmlns:sodipodi="http://sodipodi.sourceforge.net/DTD/sodipodi-0.dtd"
   xmlns="http://www.w3.org/2000/svg"
   xmlns:svg="http://www.w3.org/2000/svg">
  <defs
     id="defs1" />
  <sodipodi:namedview
     id="namedview1"
     pagecolor="#ffffff"
     bordercolor="#000000"
     borderopacity="0.25"
     inkscape:showpageshadow="2"
     inkscape:pageopacity="0.0"
     inkscape:pagecheckerboard="0"
     inkscape:deskcolor="#d1d1d1"
     showgrid="false">
    <inkscape:page
       x="0"
       y="0"
       width="2134.1011"
       height="2079.9309"
       id="page2"
       margin="0"
       bleed="0" />
  </sodipodi:namedview>
  <path
     style="display:inline;fill:#000000;stroke:#ffffff;stroke-width:4.1855"
     d="m 734.28143,2076.6535 c -19.6496,-3.5007 -77.4422,-26.0228 -130.0783,-50.6922 C 317.23033,1891.4631 89.98082,1603.0324 25.75396,1291.7791 4.1965901,1187.3088 -2.9181899,1075.6759 5.5984301,975.53297 11.18973,909.78751 32.00317,803.24546 50.88275,743.72672 107.74813,564.45593 219.77233,393.38161 363.27423,266.66767 522.17193,126.35899 715.89223,38.073983 928.78463,8.9450899 c 67.0473,-9.17371098 210.93107,-9.09358598 278.81687,0.155265 90.9275,12.3880731 199.5452,42.0523391 275.3246,75.1930871 240.4883,105.173218 429.2447,284.360268 541.7107,514.247548 64.685,132.22027 97.0935,256.60322 105.4553,404.73581 10.8271,191.8051 -24.163,367.061 -106.1854,531.8536 -76.8518,154.4042 -194.2373,294.583 -329.3572,393.3102 -99.7118,72.8557 -258.1787,148.6157 -310.8589,148.6157 -23.7998,0 -41.2215,-13.9434 -46.6129,-37.3065 -1.9936,-8.6394 -3.667,-92.2117 -3.7185,-185.7163 -0.077,-139.3413 -1.2137,-175.4682 -6.3028,-200.2769 -7.2313,-35.2519 -23.0803,-70.6348 -42.6839,-95.2922 l -13.8682,-17.4435 14.6909,-2.7941 c 135.7356,-25.8161 158.2749,-32.3578 222.8218,-64.6709 89.0358,-44.5727 140.6944,-93.0193 179.3736,-168.2204 21.3756,-41.5591 39.1373,-92.9478 50.5218,-146.1709 10.6146,-49.6241 15.0636,-174.72413 7.8213,-219.92754 -10.7682,-67.2115 -37.0129,-129.07423 -78.4911,-185.01595 l -24.1699,-32.59798 5.95,-18.34408 c 22.4147,-69.10463 15.9165,-179.84884 -14.8727,-253.46264 l -6.3601,-15.20656 -34.361,1.77842 c -55.7283,2.88438 -141.8377,36.78456 -223.2244,87.88067 -26.088,16.37853 -37.3239,21.34933 -44.7255,19.7867 -5.4367,-1.14775 -26.7588,-5.66014 -47.3824,-10.02752 -85.9951,-18.21079 -179.5199,-24.97791 -270.3632,-19.56246 -69.25517,4.12849 -93.72567,7.4375 -159.53937,21.5734 l -47.2112,10.1403 -41.4047,-25.10715 c -77.9812,-47.28638 -167.2787,-81.58118 -220.0945,-84.52749 l -33.9074,-1.89152 -8.6052,22.99942 c -18.7868,50.21199 -25.1028,86.80856 -24.993,144.81537 0.09,47.53617 1.4657,59.47806 10.163,88.22314 l 10.059,33.2452 -14.6894,17.8058 c -73.0716,88.57449 -101.311,190.07259 -90.8682,326.59837 6.7314,88.0032 18.3046,140.0419 45.4687,204.4507 27.6977,65.6737 66.8395,117.2192 118.9923,156.6998 33.8022,25.589 107.8187,62.7644 153.8422,77.2686 34.9812,11.0243 99.8645,24.8614 142.4424,30.3775 l 18.7419,2.4281 -13.9454,16.2921 c -19.7449,23.0674 -35.8377,57.3086 -43.9984,93.6169 l -7.0196,31.2308 -31.4207,10.4487 c -28.0478,9.3272 -37.5331,10.4716 -88.3622,10.6615 -55.6991,0.208 -57.5001,-0.052 -82.5455,-11.9211 -33.9412,-16.0847 -69.0857,-49.3353 -96.3712,-91.1777 -26.6825,-40.9177 -47.0681,-62.999 -77.293,-83.7219 -33.8076,-23.1793 -55.6821,-31.1749 -91.2716,-33.3617 -33.9063,-2.0833 -49.9114,2.6763 -52.3968,15.5818 -2.3806,12.3616 17.48,36.2316 45.511,54.6985 46.7379,30.7911 77.3066,71.8107 111.1964,149.2124 18.0302,41.1797 24.2831,51.1597 45.09,71.9666 29.4447,29.4446 69.3156,50.1533 113.6502,59.0289 35.3914,7.0853 143.098,9.4558 179.6602,3.9541 l 22.5803,-3.3977 v 104.713 c 0,108.5578 -1.2684,118.1986 -17.3012,131.5046 -9.0806,7.5362 -29.8561,10.9217 -47.611,7.7585 z"
     id="path1" />
</svg>
