<?xml version="1.0" encoding="UTF-8" standalone="no"?>
<!-- Created with Inkscape (http://www.inkscape.org/) -->

<svg
   version="1.1"
   id="svg1"
   width="1444.9191"
   height="1441.5128"
   viewBox="0 0 1444.9191 1441.5128"
   sodipodi:docname="linkedin.svg"
   xmlns:inkscape="http://www.inkscape.org/namespaces/inkscape"
   xmlns:sodipodi="http://sodipodi.sourceforge.net/DTD/sodipodi-0.dtd"
   xmlns="http://www.w3.org/2000/svg"
   xmlns:svg="http://www.w3.org/2000/svg">
  <defs
     id="defs1" />
  <sodipodi:namedview
     id="namedview1"
     pagecolor="#ffffff"
     bordercolor="#000000"
     borderopacity="0.25"
     inkscape:showpageshadow="2"
     inkscape:pageopacity="0.0"
     inkscape:pagecheckerboard="0"
     inkscape:deskcolor="#d1d1d1"
     showgrid="false">
    <inkscape:page
       x="0"
       y="0"
       width="1444.9191"
       height="1441.5128"
       id="page1"
       margin="0"
       bleed="0" />
  </sodipodi:namedview>
  <g
     inkscape:groupmode="layer"
     inkscape:label="Image"
     id="g1"
     transform="translate(-238.34971,-240.14793)">
    <path
       style="fill:#000000;stroke:#ffffff;stroke-width:4.12776"
       d="m 871.52244,1676.6196 c -253.8243,-34.9019 -464.0063,-191.1586 -570.48798,-424.1209 -42.35855,-92.6726 -60.56744,-180.3937 -60.62071,-292.03939 -0.0495,-103.76272 12.31698,-170.86056 48.53711,-263.35175 37.43979,-95.60568 85.45912,-167.61345 164.00398,-245.93344 65.89761,-65.70896 109.2742,-97.27858 186.06042,-135.41535 64.9061,-32.23638 105.98758,-46.80836 176.62045,-62.64889 45.23353,-10.14432 53.47753,-10.77277 142.88719,-10.89244 77.2977,-0.10346 100.9855,1.17459 127.803,6.89547 156.1026,33.30074 267.4215,90.66452 373.2042,192.31594 180.5513,173.50019 258.1261,426.40918 205.4804,669.90665 -50.2483,232.4087 -213.4807,426.845 -433.657,516.556 -47.1111,19.1954 -84.1552,30.2192 -140.3177,41.7565 -43.7316,8.9836 -174.64411,13.1413 -219.51336,6.9716 z M 720.34448,1105.69 V 815.22856 l -91.97947,-1.0383 -91.97947,-1.0383 v 289.88614 c 0,159.4373 1.19318,291.0793 2.6515,292.5376 1.45832,1.4583 42.84909,2.1844 91.97946,1.6137 l 89.32798,-1.0379 z m 273.77916,122.5617 1.19104,-169.8362 13.55492,-26.5376 c 22.2808,-43.62139 52.1475,-60.85544 105.1013,-60.64693 41.463,0.16332 74.2142,19.40748 90.1377,52.96383 12.7547,26.8785 14.7046,58.6625 13.3155,217.0439 l -1.3587,154.9128 90.2305,1.0401 90.2305,1.04 -1.2492,-208.2359 c -1.3976,-232.97654 0.6185,-215.04148 -31.2954,-278.40108 -22.657,-44.98129 -68.137,-81.58656 -122.6839,-98.74381 -39.7063,-12.4893 -100.6288,-11.37401 -142.7812,2.61384 -35.939,11.926 -71.489,32.97799 -96.4246,57.10082 l -16.45947,15.92298 V 850.8903 813.29215 H 900.4306 815.22856 V 1105.69 1398.0879 h 88.85202 88.85201 z M 678.29553,721.09031 c 82.93601,-42.51547 67.74124,-170.18538 -23.17964,-194.76059 -49.66302,-13.42353 -106.73353,17.3126 -125.21315,67.4353 -5.76238,15.62944 -6.27919,46.78644 -1.08621,65.48472 4.4819,16.13796 23.71675,43.00337 38.77551,54.15798 27.37754,20.27963 79.12479,23.87078 110.70349,7.68259 z"
       id="path1" />
  </g>
</svg>
